<?xml version="1.0" encoding="UTF-8"?>
<svg id="Calque_1" xmlns="http://www.w3.org/2000/svg" version="1.1" viewBox="0 0 312.46 312.46">
  <!-- Generator: Adobe Illustrator 29.5.1, SVG Export Plug-In . SVG Version: 2.1.0 Build 141)  -->
  <defs>
    <style>
      .st0 {
        isolation: isolate;
      }

      .st1 {
        display: none;
      }

      .st1, .st2 {
        fill: none;
        stroke: #06b6e8;
        stroke-miterlimit: 10;
        stroke-width: 2px;
      }
    </style>
  </defs>
  <g class="st0">
    <g id="Calque_11">
      <g>
        <g>
          <rect class="st2" x="239.17" y="140.19" width="66.08" height="22.25" rx="11.05" ry="11.05"/>
          <path class="st2" d="M258.13,179.92c-13.08,46.83-57.46,80.74-109.07,77.61-53.81-3.26-97.12-47.22-99.64-101.09-2.84-60.95,45.89-111.46,106.26-111.46,48.64,0,89.75,32.81,102.38,77.45,1.29,4.59,5.56,7.72,10.34,7.72h1.29c7.17,0,12.34-6.88,10.4-13.79-15.99-56.81-69.92-97.93-132.65-93.99-65.24,4.07-117.63,57.26-120.79,122.54-3.59,74.16,55.68,135.62,129.06,135.62,59.36,0,109.49-40.24,124.57-94.89,1.91-6.85-3.33-13.63-10.43-13.63h-1.29c-4.81,0-9.08,3.2-10.37,7.85l-.06.06Z"/>
        </g>
        <path class="st1" d="M91.38,207.37"/>
        <path class="st1" d="M164.18,206.27"/>
      </g>
    </g>
  </g>
</svg>
