<?xml version="1.0" encoding="UTF-8"?>
<svg id="Calque_1" xmlns="http://www.w3.org/2000/svg" version="1.1" viewBox="0 0 372 372">
  <!-- Generator: Adobe Illustrator 29.5.1, SVG Export Plug-In . SVG Version: 2.1.0 Build 141)  -->
  <defs>
    <style>
      .st0 {
        stroke: #05b7e9;
        stroke-miterlimit: 10;
        stroke-width: .75px;
      }

      .st0, .st1 {
        fill: #fff;
      }

      .st2 {
        isolation: isolate;
      }

      .st3 {
        mix-blend-mode: overlay;
        opacity: .75;
      }
    </style>
  </defs>
  <g class="st2">
    <g id="Calque_11" data-name="Calque_1">
      <g>
        <g>
          <g>
            <rect class="st1" x="282.47" y="164.23" width="79.53" height="26.78" rx="13.29" ry="13.29"/>
            <g class="st3">
              <rect class="st1" x="282.47" y="164.23" width="79.53" height="26.78" rx="13.29" ry="13.29"/>
            </g>
          </g>
          <g>
            <path class="st1" d="M305.29,212.04c-15.74,56.36-69.15,97.18-131.27,93.41-64.76-3.93-116.89-56.83-119.92-121.67-3.42-73.35,55.24-134.15,127.89-134.15,58.54,0,108.03,39.49,123.22,93.22,1.55,5.52,6.69,9.29,12.44,9.29h1.55c8.63,0,14.85-8.28,12.52-16.6-19.24-68.38-84.16-117.86-159.65-113.12C93.55,27.32,30.5,91.34,26.69,169.9c-4.31,89.25,67.02,163.22,155.33,163.22,71.45,0,131.78-48.43,149.93-114.21,2.29-8.24-4-16.4-12.56-16.4h-1.55c-5.79,0-10.92,3.85-12.48,9.45l-.08.08Z"/>
            <g class="st3">
              <path class="st1" d="M305.29,212.04c-15.74,56.36-69.15,97.18-131.27,93.41-64.76-3.93-116.89-56.83-119.92-121.67-3.42-73.35,55.24-134.15,127.89-134.15,58.54,0,108.03,39.49,123.22,93.22,1.55,5.52,6.69,9.29,12.44,9.29h1.55c8.63,0,14.85-8.28,12.52-16.6-19.24-68.38-84.16-117.86-159.65-113.12C93.55,27.32,30.5,91.34,26.69,169.9c-4.31,89.25,67.02,163.22,155.33,163.22,71.45,0,131.78-48.43,149.93-114.21,2.29-8.24-4-16.4-12.56-16.4h-1.55c-5.79,0-10.92,3.85-12.48,9.45l-.08.08Z"/>
            </g>
          </g>
        </g>
        <path class="st0" d="M104.59,245.08"/>
        <path class="st0" d="M192.21,243.76"/>
      </g>
    </g>
  </g>
</svg>